<svg width="193" height="51" viewBox="0 0 193 51" fill="none" xmlns="http://www.w3.org/2000/svg">
<g clip-path="url(#clip0_3424_3528)">
<path d="M55.4565 47.4063V39.0819H58.3117C60.1237 39.0819 61.4415 40.0129 61.4415 41.7107C61.4415 43.4084 60.2335 44.3394 58.4765 44.3394H56.6096V47.4063H55.5114H55.4565ZM56.5547 43.4632H58.4216C59.5746 43.4632 60.3982 42.806 60.3982 41.7107C60.3982 40.6154 59.5746 40.0129 58.3666 40.0129H56.5547V43.4632Z" fill="#5E257B"/>
<path d="M64.9553 41.3821C66.6026 41.3821 67.7007 42.4775 67.7007 44.5038C67.7007 46.5301 66.7673 47.5707 64.9553 47.5707C63.1434 47.5707 62.21 46.4754 62.21 44.5038C62.21 42.5322 63.1983 41.3821 64.9553 41.3821ZM64.9553 46.6944C66.0535 46.6944 66.6026 45.8182 66.6026 44.449C66.6026 43.0799 66.1084 42.2036 64.9553 42.2036C63.8023 42.2036 63.2532 43.0251 63.2532 44.449C63.2532 45.8729 63.7474 46.6944 64.9553 46.6944Z" fill="#5E257B"/>
<path d="M70.9403 46.0372L72.313 41.4916H73.1366L74.5642 46.0372H74.6741L75.9918 41.4916H76.9802L75.1682 47.4611H74.125L72.7523 43.0798L71.4345 47.4611H70.3913L68.5244 41.4916H69.5127L70.8854 46.0372H70.9953H70.9403Z" fill="#5E257B"/>
<path d="M83.13 45.7086C82.9103 46.9135 81.7573 47.5707 80.6042 47.5707C78.9021 47.5707 77.749 46.4206 77.749 44.5585C77.749 42.6965 78.7374 41.4369 80.4944 41.4369C82.2514 41.4369 83.13 42.587 83.13 44.3942V44.7776H78.7923C78.7923 45.9277 79.3413 46.8039 80.5493 46.8039C81.7573 46.8039 81.922 46.4206 82.0867 45.7634H83.0751L83.13 45.7086ZM78.8472 44.0109H82.1416C82.1416 42.9703 81.6475 42.2036 80.5493 42.2036C79.4512 42.2036 78.9021 43.1346 78.9021 44.0109H78.8472Z" fill="#5E257B"/>
<path d="M84.6672 47.4064V41.4369H85.7105V42.587C86.0399 41.7107 86.7537 41.3274 87.4675 41.3274C88.1813 41.3274 87.8518 41.3274 87.9068 41.3821V42.4227C87.7969 42.4227 87.5773 42.3679 87.4675 42.3679C86.4792 42.3131 85.7105 42.6965 85.7105 43.6823V47.4064H84.6123H84.6672Z" fill="#5E257B"/>
<path d="M94.2213 45.7086C94.0016 46.9135 92.8486 47.5707 91.6955 47.5707C89.9934 47.5707 88.8403 46.4206 88.8403 44.5585C88.8403 42.6965 89.8287 41.4369 91.5857 41.4369C93.3428 41.4369 94.2213 42.587 94.2213 44.3942V44.7776H89.8836C89.8836 45.9277 90.4326 46.8039 91.6406 46.8039C92.8486 46.8039 93.0133 46.4206 93.178 45.7634H94.1664L94.2213 45.7086ZM89.9385 44.0109H93.2329C93.2329 42.9703 92.7388 42.2036 91.6406 42.2036C90.5425 42.2036 89.9934 43.1346 89.9934 44.0109H89.9385Z" fill="#5E257B"/>
<path d="M99.9865 46.2015C99.8218 46.6944 99.3825 47.5159 97.9549 47.5159C96.5273 47.5159 95.4292 46.4206 95.4292 44.3942C95.4292 42.3679 96.2528 41.3273 97.9 41.3273C99.5473 41.3273 99.6571 41.9845 99.8767 42.3679V38.8081H100.975V47.3516H100.151L100.041 46.1467L99.9865 46.2015ZM98.1197 46.7492C99.3276 46.7492 99.8218 46.092 99.8218 44.3942C99.8218 43.0251 99.3276 42.2036 98.1197 42.2036C96.9117 42.2036 96.4724 42.8608 96.4724 44.3942C96.4724 45.9277 97.0215 46.7492 98.1197 46.7492Z" fill="#5E257B"/>
<path d="M105.532 38.8629H106.63V42.4226C106.85 42.0393 107.454 41.3821 108.607 41.3821C109.76 41.3821 111.078 42.4226 111.078 44.449C111.078 46.4753 110.254 47.5706 108.552 47.5706C106.85 47.5706 106.685 46.6944 106.521 46.2562L106.411 47.4611H105.587V38.9176L105.532 38.8629ZM108.333 46.7491C109.321 46.7491 109.98 46.0372 109.98 44.3942C109.98 42.7512 109.376 42.2036 108.278 42.2036C107.179 42.2036 106.63 42.9703 106.575 44.3942C106.575 46.0372 107.07 46.7491 108.278 46.7491H108.333Z" fill="#5E257B"/>
<path d="M112.066 48.5017H112.67C113.549 48.5017 113.768 48.1731 113.933 47.8445L114.153 47.2968L111.792 41.4916H112.89L114.647 46.092L116.404 41.4916H117.447L114.921 47.8992C114.427 49.0493 113.823 49.3232 112.999 49.3232C112.176 49.3232 112.066 49.1589 112.066 49.1589V48.4469V48.5017Z" fill="#5E257B"/>
<path d="M123.542 47.4063V40.0677H120.796V39.0819H127.166V40.0677H124.585V47.4063H123.487H123.542Z" fill="#5E257B"/>
<path d="M128.593 47.4063V39.0819H131.284C133.315 39.0819 134.413 39.8486 134.413 41.2725C134.413 42.6965 134.029 42.806 132.876 43.1893C134.194 43.4632 134.633 44.2299 134.633 45.2157C134.633 46.7491 133.535 47.4611 131.394 47.4611H128.593V47.4063ZM129.691 42.7512H131.503C132.382 42.7512 133.37 42.4226 133.37 41.3821C133.37 40.3415 132.547 39.9582 131.339 39.9582H129.637V42.7512H129.691ZM129.691 46.5301H131.394C132.821 46.5301 133.535 46.0919 133.535 45.1062C133.535 44.1204 132.656 43.6275 131.503 43.6275H129.691V46.4753V46.5301Z" fill="#5E257B"/>
<path d="M136.5 47.4063V39.0819H137.598V47.4063H136.5Z" fill="#5E257B"/>
<path d="M82.4711 0.800598H0V29.5527H82.4711V0.800598Z" fill="#630D80"/>
<path d="M12.7935 20.7353V8.13919C13.1229 8.13919 15.8683 8.13919 17.0213 8.13919C21.6336 8.24872 23.6102 10.7132 23.6102 14.3277C23.6102 17.9423 21.5238 20.6806 16.9664 20.6806H12.8484L12.7935 20.7353ZM15.8134 18.3804H17.0213C18.7784 18.3804 20.4805 17.2851 20.4805 14.3825C20.4805 11.4799 19.1627 10.5489 17.0762 10.5489H15.8683V18.3804H15.8134Z" fill="white"/>
<path d="M28.2776 8.13919V10.7132H25.4224V8.13919H28.2776ZM25.4224 20.7353V11.7537H28.2776V20.7353H25.4224Z" fill="white"/>
<path d="M29.9797 21.1735H32.6701C33.0545 21.6664 33.6585 21.995 34.3174 21.995C35.5802 21.995 36.0195 21.1735 36.0195 20.0234V19.0376C35.4704 19.9139 34.5919 20.352 33.5487 20.352C30.8033 20.352 29.8149 18.4352 29.8149 15.916C29.8149 13.3968 30.7484 11.5895 33.329 11.5895C35.9097 11.5895 35.3606 11.9728 36.0195 12.8491V11.7538H38.8747V19.5305C38.8747 22.4331 37.2275 24.0761 34.3174 24.0761C31.4073 24.0761 30.4738 23.0903 29.9797 21.1735ZM36.0195 15.916C36.0195 14.7659 35.6351 13.6706 34.3174 13.6706C32.9996 13.6706 32.6152 14.8207 32.6152 15.916C32.6152 17.0113 32.9447 18.1614 34.3174 18.1614C35.69 18.1614 36.0195 16.9565 36.0195 15.916Z" fill="white"/>
<path d="M43.7612 8.13919V10.7132H40.906V8.13919H43.7612ZM40.8511 20.7353V11.7537H43.7063V20.7353H40.8511Z" fill="white"/>
<path d="M46.6163 13.7253H45.1338V11.699H46.7261L47.4948 8.96069H49.6362V11.699H51.6129V13.7253H49.6362V18.1614C49.6362 18.709 49.9107 18.7638 50.35 18.7638H51.6678V20.5711C51.4482 20.6806 50.954 20.7901 49.9657 20.7901C47.3301 20.7901 46.6712 19.6948 46.6712 18.2709V13.7253H46.6163Z" fill="white"/>
<path d="M58.6962 19.2019C58.0922 20.4616 57.2686 20.8449 56.0057 20.8449C54.7428 20.8449 52.876 19.8591 52.876 18.0519C52.876 16.2446 54.3585 14.985 57.598 14.985H58.5315V14.4921C58.5315 13.7801 58.1471 13.4515 57.2686 13.4515C56.6646 13.4515 55.9508 13.6706 55.6763 14.4373H53.2054C53.3152 12.411 55.0723 11.5347 57.3784 11.5347C59.6845 11.5347 61.3866 12.63 61.3866 14.3278V20.6806H58.9158L58.6413 19.2019H58.6962ZM58.5864 16.4637H57.8726C56.9391 16.4637 55.7861 16.7923 55.7861 17.778C55.7861 18.7638 56.3901 18.9829 57.1039 18.9829C57.8177 18.9829 58.5864 18.3805 58.6413 17.6685V16.4637H58.5864Z" fill="white"/>
<path d="M63.3635 7.81061H66.2736V17.7232C66.2736 18.2709 66.4383 18.709 67.3168 18.8185H67.7012V20.6806C67.3168 20.8449 66.9325 20.8997 66.4932 20.8997C63.4733 20.8997 63.3086 19.421 63.3086 18.1066V7.81061H63.3635Z" fill="white"/>
<path d="M193.055 0.800598H82.4712V29.5527H193.055V0.800598Z" fill="#C1E62E"/>
<path d="M95.2646 8.13921H98.3395V15.8612C98.3395 17.6685 99.3278 18.3804 100.591 18.3804C101.854 18.3804 102.842 17.6685 102.842 15.8612V8.13921H105.862V15.6969C105.862 18.8186 104.489 20.8449 100.536 20.8449C96.5824 20.8449 95.2646 18.8186 95.2646 15.6421V8.08444V8.13921Z" fill="#5E257B"/>
<path d="M107.893 20.7354V11.7538H110.858V13.0134C111.243 12.411 111.956 11.699 113.384 11.699C114.812 11.699 116.569 12.5753 116.569 14.7659V20.7354H113.549V15.1493C113.549 14.3826 112.945 13.9444 112.286 13.9444C111.627 13.9444 110.858 14.3278 110.858 15.0398V20.6806H107.838L107.893 20.7354Z" fill="#5E257B"/>
<path d="M121.346 8.13922V10.7132H118.491V8.13922H121.346ZM118.491 20.7354V11.7538H121.346V20.7354H118.491Z" fill="#5E257B"/>
<path d="M126.013 20.7354L122.499 11.7538H125.189L127.001 16.9018L128.758 11.7538H131.504L127.99 20.7354H125.958H126.013Z" fill="#5E257B"/>
<path d="M140.893 17.778C140.619 19.7496 138.587 20.8997 136.665 20.8997C133.865 20.8997 131.998 19.0924 131.998 16.3541C131.998 13.6158 133.645 11.5895 136.5 11.5895C139.356 11.5895 140.838 13.5063 140.838 16.1898V16.9018H134.908C134.908 18.1066 135.567 18.8186 136.555 18.8186C137.544 18.8186 137.928 18.5448 138.203 17.778H140.893ZM134.963 15.2041H138.093C138.093 14.3278 137.544 13.5611 136.5 13.5611C135.457 13.5611 134.908 14.3278 134.908 15.2041H134.963Z" fill="#5E257B"/>
<path d="M142.595 20.7354V11.7538H145.505V14.054C145.945 12.6301 146.933 11.5895 148.47 11.5895C150.008 11.5895 148.69 11.5895 148.745 11.5895V14.3826C148.69 14.3826 148.58 14.3826 148.47 14.3826C146.164 14.1635 145.615 15.0398 145.615 16.1351V20.7354H142.595Z" fill="#5E257B"/>
<path d="M152.204 17.778C152.423 18.7091 153.357 18.8734 153.851 18.8734C154.729 18.8734 155.333 18.6543 155.333 18.1614C155.333 17.6685 155.059 17.5042 154.18 17.3947L152.698 17.1209C150.996 16.7923 149.898 16.0255 149.898 14.4921C149.898 12.8491 151.325 11.5895 153.851 11.5895C156.377 11.5895 157.749 12.6848 157.749 14.4921H155.279C155.169 13.8897 154.565 13.5611 153.851 13.5611C153.137 13.5611 152.533 13.8349 152.533 14.3278C152.533 14.8207 152.972 14.9302 153.961 15.0945L155.279 15.3684C157.475 15.916 157.859 17.2852 157.859 18.1066C157.859 19.9687 156.157 21.0092 153.851 21.0092C151.545 21.0092 149.952 20.133 149.623 17.8876H152.204V17.778Z" fill="#5E257B"/>
<path d="M162.362 8.13922V10.7132H159.507V8.13922H162.362ZM159.452 20.7354V11.7538H162.307V20.7354H159.452Z" fill="#5E257B"/>
<path d="M165.217 13.7254H163.734V11.699H165.327L166.095 8.96072H168.237V11.699H170.213V13.7254H168.237V18.1614C168.237 18.709 168.511 18.7638 168.951 18.7638H170.268V20.5711C170.049 20.6806 169.555 20.7902 168.566 20.7902C165.931 20.7902 165.272 19.6948 165.272 18.2709V13.7254H165.217Z" fill="#5E257B"/>
<path d="M171.696 21.3378H172.575C174.277 21.5021 174.386 20.7902 174.496 20.5711L174.606 20.2425L171.037 11.699H174.002L175.979 17.0661L177.955 11.699H180.866L177.242 20.4616C176.144 23.0356 174.99 23.5832 173.508 23.5832C172.025 23.5832 171.641 23.2546 171.641 23.2546V21.3926L171.696 21.3378Z" fill="#5E257B"/>
</g>
<defs>
<clipPath id="clip0_3424_3528">
<rect width="193" height="49.3988" fill="white" transform="translate(0 0.800598)"/>
</clipPath>
</defs>
</svg>
